<svg xmlns="http://www.w3.org/2000/svg" width="77" height="77" viewBox="0 0 77 77" fill="none">
  <path d="M54.5417 9.625C58.7962 9.625 62.8764 11.3151 65.8848 14.3235C68.8932 17.3319 70.5833 21.4122 70.5833 25.6667V51.3333C70.5833 55.5878 68.8932 59.6681 65.8848 62.6765C62.8764 65.6849 58.7962 67.375 54.5417 67.375H9.625C8.77409 67.375 7.95804 67.037 7.35636 66.4353C6.75468 65.8336 6.41666 65.0176 6.41666 64.1667V25.6667C6.41666 21.4122 8.10676 17.3319 11.1152 14.3235C14.1236 11.3151 18.2038 9.625 22.4583 9.625H54.5417ZM54.5417 16.0417H22.4583C19.9056 16.0417 17.4575 17.0557 15.6524 18.8608C13.8474 20.6658 12.8333 23.114 12.8333 25.6667V60.9583H54.5417C57.0944 60.9583 59.5425 59.9443 61.3476 58.1392C63.1526 56.3342 64.1667 53.886 64.1667 51.3333V25.6667C64.1667 23.114 63.1526 20.6658 61.3476 18.8608C59.5425 17.0557 57.0944 16.0417 54.5417 16.0417ZM28.875 32.0833C29.7259 32.0833 30.542 32.4214 31.1436 33.023C31.7453 33.6247 32.0833 34.4408 32.0833 35.2917V41.7083C32.0833 42.5592 31.7453 43.3753 31.1436 43.977C30.542 44.5786 29.7259 44.9167 28.875 44.9167C28.0241 44.9167 27.208 44.5786 26.6064 43.977C26.0047 43.3753 25.6667 42.5592 25.6667 41.7083V35.2917C25.6667 34.4408 26.0047 33.6247 26.6064 33.023C27.208 32.4214 28.0241 32.0833 28.875 32.0833ZM48.125 32.0833C48.9108 32.0834 49.6693 32.3719 50.2565 32.8941C50.8438 33.4163 51.2189 34.1359 51.3109 34.9163L51.3333 35.2917V41.7083C51.3324 42.5261 51.0193 43.3126 50.4579 43.9072C49.8966 44.5018 49.1294 44.8597 48.313 44.9076C47.4967 44.9555 46.6929 44.6899 46.0658 44.1651C45.4387 43.6402 45.0357 42.8957 44.9391 42.0837L44.9167 41.7083V35.2917C44.9167 34.4408 45.2547 33.6247 45.8564 33.023C46.458 32.4214 47.2741 32.0833 48.125 32.0833Z" fill="#E7B044"/>
</svg>
